/* XPM */
static char *e46b230bc301423ec381cb0efcdf4a920h5hfO5QWhQJ7k3e[] = {
/* columns rows colors chars-per-pixel */
"128 128 3 1 ",
"  c None",
". c black",
"X c white",
/* pixels */
"                              ....................................................................                              ",
"                          ............................................................................                          ",
"                       ..................................................................................                       ",
"                     ......................................................................................                     ",
"                   ..........................................................................................                   ",
"                 ..............................................................................................                 ",
"               ..................................................................................................               ",
"              ....................................................................................................              ",
"             ......................................................................................................             ",
"            ........................................................................................................            ",
"           ..........................................................................................................           ",
"          ............................................................................................................          ",
"         ..............................................................................................................         ",
"        ................................................................................................................        ",
"       ..................................................................................................................       ",
"      ....................................................................................................................      ",
"      ....................................................................................................................      ",
"     ......................................................................................................................     ",
"     ......................................................................................................................     ",
"    ........................................................................................................................    ",
"    ........................................................................................................................    ",
"   ..........................................................................................................................   ",
"   ..........................................................................................................................   ",
"  ............................................................................................................................  ",
"  ............................................................................................................................  ",
"  ............................................................................................................................  ",
" .............................................................................................................................. ",
" .............................................................................................................................. ",
" .............................................................................................................................. ",
" .............................................................................................................................. ",
"................................................................................................................................",
"................................................................................................................................",
"................................................................................................................................",
"..............................................................XXXX..............................................................",
".........................................................XXXXXXXXXXXXXX.........................................................",
".......................................................XXXXXXXXXXXXXXXXXX.......................................................",
".....................................................XXXXXXXXXXXXXXXXXXXXXX.....................................................",
"....................................................XXXXXXXXXXXXXXXXXXXXXXXX....................................................",
"...................................................XXXXXXXXXXXXXXXXXXXXXXXXXX...................................................",
"..................................................XXXXXXXXXXXXXXXXXXXXXXXXXXXX..................................................",
".................................................XXXXXXXXXXXXXXXXXXXXXXXXXXXXXX.................................................",
"................................................XXXXXXXXXXXXXXXXXXXXXXXXXXXXXXXX................................................",
"................................................XXXXXXXXXXXX........XXXXXXXXXXXX................................................",
"...............................................XXXXXXXXXXX............XXXXXXXXXXX...............................................",
"...............................................XXXXXXXXXX..............XXXXXXXXXX...............................................",
"..............................................XXXXXXXXXX................XXXXXXXXXX..............................................",
"..............................................XXXXXXXXX..................XXXXXXXXX..............................................",
".............................................XXXXXXXXX....................XXXXXXXXX.............................................",
".............................................XXXXXXXXX....................XXXXXXXXX.............................................",
".............................................XXXXXXXX......................XXXXXXXX.............................................",
".............................................XXXXXXXX......................XXXXXXXX.............................................",
".............................................XXXXXXXX......................XXXXXXXX.............................................",
".............................................XXXXXXXX......................XXXXXXXX.............................................",
".............................................XXXXXXXX......................XXXXXXXX.............................................",
".............................................XXXXXXXX......................XXXXXXXX.............................................",
".............................................XXXXXXXX......................XXXXXXXX.............................................",
".............................................XXXXXXXX......................XXXXXXXX.............................................",
".............................................XXXXXXXX......................XXXXXXXX.............................................",
".............................................XXXXXXXX......................XXXXXXXX.............................................",
".............................................XXXXXXXX......................XXXXXXXX.............................................",
".............................................XXXXXXXX......................XXXXXXXX.............................................",
".............................................XXXXXXXX......................XXXXXXXX.............................................",
".............................................XXXXXXXX......................XXXXXXXX.............................................",
".............................................XXXXXXXX......................XXXXXXXX.............................................",
".............................................XXXXXXXX......................XXXXXXXX.............................................",
".............................................XXXXXXXX......................XXXXXXXX.............................................",
".............................................XXXXXXXX......................XXXXXXXX.............................................",
".............................................XXXXXXXX......................XXXXXXXX.............................................",
".............................................XXXXXXXX......................XXXXXXXX.............................................",
".............................................XXXXXXXX......................XXXXXXXX.............................................",
".............................................XXXXXXXX......................XXXXXXXX.............................................",
".............................................XXXXXXXX......................XXXXXXXX.............................................",
".............................................XXXXXXXX......................XXXXXXXX.............................................",
".............................................XXXXXXXX......................XXXXXXXX.............................................",
".............................................XXXXXXXX......................XXXXXXXX.............................................",
".............................................XXXXXXXX......................XXXXXXXX.............................................",
".............................................XXXXXXXX......................XXXXXXXX.............................................",
".............................................XXXXXXXX......................XXXXXXXX.............................................",
".............................................XXXXXXXX......................XXXXXXXX.............................................",
".............................................XXXXXXXXX....................XXXXXXXXX.............................................",
".............................................XXXXXXXXX....................XXXXXXXXX.............................................",
"..............................................XXXXXXXXX..................XXXXXXXXX..............................................",
"..............................................XXXXXXXXXX................XXXXXXXXXX..............................................",
"...............................................XXXXXXXXXX..............XXXXXXXXXX...............................................",
"...............................................XXXXXXXXXXX............XXXXXXXXXXX...............................................",
"................................................XXXXXXXXXXXX........XXXXXXXXXXXX................................................",
"................................................XXXXXXXXXXXXXXXXXXXXXXXXXXXXXXXX................................................",
".................................................XXXXXXXXXXXXXXXXXXXXXXXXXXXXXX.................................................",
"..................................................XXXXXXXXXXXXXXXXXXXXXXXXXXXX..................................................",
"...................................................XXXXXXXXXXXXXXXXXXXXXXXXXX...................................................",
"....................................................XXXXXXXXXXXXXXXXXXXXXXXX....................................................",
"......................................................XXXXXXXXXXXXXXXXXXXX......................................................",
".......................................................XXXXXXXXXXXXXXXXXX.......................................................",
".........................................................XXXXXXXXXXXXXX.........................................................",
"..............................................................XXXX..............................................................",
"................................................................................................................................",
"................................................................................................................................",
"................................................................................................................................",
" .............................................................................................................................. ",
" .............................................................................................................................. ",
" .............................................................................................................................. ",
" .............................................................................................................................. ",
"  ............................................................................................................................  ",
"  ............................................................................................................................  ",
"  ............................................................................................................................  ",
"   ..........................................................................................................................   ",
"   ..........................................................................................................................   ",
"    ........................................................................................................................    ",
"    ........................................................................................................................    ",
"     ......................................................................................................................     ",
"     ......................................................................................................................     ",
"      ....................................................................................................................      ",
"      ....................................................................................................................      ",
"       ..................................................................................................................       ",
"        ................................................................................................................        ",
"         ..............................................................................................................         ",
"          ............................................................................................................          ",
"           ..........................................................................................................           ",
"            ........................................................................................................            ",
"             ......................................................................................................             ",
"              ....................................................................................................              ",
"               ..................................................................................................               ",
"                 ..............................................................................................                 ",
"                   ..........................................................................................                   ",
"                     ......................................................................................                     ",
"                       ..................................................................................                       ",
"                          ............................................................................                          ",
"                              ....................................................................                              "
};
