/* XPM */
static char *f057e62c1b744ee189193393c4593af3ByVcXKA7D8oQwfZJ[] = {
/* columns rows colors chars-per-pixel */
"128 128 3 1 ",
"  c None",
". c black",
"X c white",
/* pixels */
"                   ..........................................................................................                   ",
"               ..................................................................................................               ",
"             ......................................................................................................             ",
"           ..........................................................................................................           ",
"          ............................................................................................................          ",
"         ..............................................................................................................         ",
"       ..................................................................................................................       ",
"      ....................................................................................................................      ",
"      ....................................................................................................................      ",
"     ......................................................................................................................     ",
"    ........................................................................................................................    ",
"   ..........................................................................................................................   ",
"   ..........................................................................................................................   ",
"  ............................................................................................................................  ",
"  ............................................................................................................................  ",
" .............................................................................................................................. ",
" .............................................................................................................................. ",
" .............................................................................................................................. ",
" .............................................................................................................................. ",
"................................................................................................................................",
"................................................................................................................................",
"................................................................................................................................",
"................................................................................................................................",
"................................................................................................................................",
"................................................................................................................................",
"................................................................................................................................",
"................................................................................................................................",
"..........................................................................XXXXX.................................................",
"......................................................................XXXXXXXXX.................................................",
".................................................................XXXXXXXXXXXXXX.................................................",
"............................................................XXXXXXXXXXXXXXXXXXX.................................................",
"........................................................XXXXXXXXXXXXXXXXXXXXXXX.................................................",
"...................................................XXXXXXXXXXXXXXXXXXXXXXXXXXXX.................................................",
".................................................XXXXXXXXXXXXXXXXXXXXXXXXXXXXXX.................................................",
".................................................XXXXXXXXXXXXXXXXXXXXXXXXXXXXXX.................................................",
".................................................XXXXXXXXXXXXXXXXXXXXXXXXXXXXXX.................................................",
".................................................XXXXXXXXXXXXXXXXXXXXXXXXXXXXXX.................................................",
".................................................XXXXXXXXXXXXXXXXXXXXXXXXXXXXXX.................................................",
".................................................XXXXXXXXXXXXXXXXXXXXXXXXXXXXXX.................................................",
".................................................XXXXXXXXXXXXXXXXXXXXXXXXXXXXXX.................................................",
".................................................XXXXXXXXXXXXXXXXXXXXXXXXXXXXXX.................................................",
".................................................XXXXXXXXXXXXXXXXXXXXXXXXXXXXXX.................................................",
".................................................XXXXXXXXXXXXXXXXXXXXXXXXXXXXXX.................................................",
".................................................XXXXXXXXXXXXXXXXXXXXXXXXXXXXXX.................................................",
".................................................XXXXXXXXXXXXXXXXXXXXXXXXXXXXXX.................................................",
".................................................XXXXXXXXXXXX.XXXXXXXXXXXXXXXXX.................................................",
".................................................XXXXXXXX.....XXXXXXXXXXXXXXXXX.................................................",
".................................................XXX..........XXXXXXXXXXXXXXXXX.................................................",
"..............................................................XXXXXXXXXXXXXXXXX.................................................",
"..............................................................XXXXXXXXXXXXXXXXX.................................................",
"..............................................................XXXXXXXXXXXXXXXXX.................................................",
"..............................................................XXXXXXXXXXXXXXXXX.................................................",
"..............................................................XXXXXXXXXXXXXXXXX.................................................",
"..............................................................XXXXXXXXXXXXXXXXX.................................................",
"..............................................................XXXXXXXXXXXXXXXXX.................................................",
"..............................................................XXXXXXXXXXXXXXXXX.................................................",
"..............................................................XXXXXXXXXXXXXXXXX.................................................",
"..............................................................XXXXXXXXXXXXXXXXX.................................................",
"..............................................................XXXXXXXXXXXXXXXXX.................................................",
"..............................................................XXXXXXXXXXXXXXXXX.................................................",
"..............................................................XXXXXXXXXXXXXXXXX.................................................",
"..............................................................XXXXXXXXXXXXXXXXX.................................................",
"..............................................................XXXXXXXXXXXXXXXXX.................................................",
"..............................................................XXXXXXXXXXXXXXXXX.................................................",
"..............................................................XXXXXXXXXXXXXXXXX.................................................",
"..............................................................XXXXXXXXXXXXXXXXX.................................................",
"..............................................................XXXXXXXXXXXXXXXXX.................................................",
"..............................................................XXXXXXXXXXXXXXXXX.................................................",
"..............................................................XXXXXXXXXXXXXXXXX.................................................",
"..............................................................XXXXXXXXXXXXXXXXX.................................................",
"..............................................................XXXXXXXXXXXXXXXXX.................................................",
"..............................................................XXXXXXXXXXXXXXXXX.................................................",
"..............................................................XXXXXXXXXXXXXXXXX.................................................",
"..............................................................XXXXXXXXXXXXXXXXX.................................................",
"..............................................................XXXXXXXXXXXXXXXXX.................................................",
"..............................................................XXXXXXXXXXXXXXXXX.................................................",
"..............................................................XXXXXXXXXXXXXXXXX.................................................",
"..............................................................XXXXXXXXXXXXXXXXX.................................................",
"..............................................................XXXXXXXXXXXXXXXXX.................................................",
"..............................................................XXXXXXXXXXXXXXXXX.................................................",
"..............................................................XXXXXXXXXXXXXXXXX.................................................",
"..............................................................XXXXXXXXXXXXXXXXX.................................................",
"..............................................................XXXXXXXXXXXXXXXXX.................................................",
"..............................................................XXXXXXXXXXXXXXXXX.................................................",
"..............................................................XXXXXXXXXXXXXXXXX.................................................",
"..............................................................XXXXXXXXXXXXXXXXX.................................................",
"..............................................................XXXXXXXXXXXXXXXXX.................................................",
"..............................................................XXXXXXXXXXXXXXXXX.................................................",
"..............................................................XXXXXXXXXXXXXXXXX.................................................",
"..............................................................XXXXXXXXXXXXXXXXX.................................................",
"..............................................................XXXXXXXXXXXXXXXXX.................................................",
"..............................................................XXXXXXXXXXXXXXXXX.................................................",
"..............................................................XXXXXXXXXXXXXXXXX.................................................",
"..............................................................XXXXXXXXXXXXXXXXX.................................................",
"..............................................................XXXXXXXXXXXXXXXXX.................................................",
"..............................................................XXXXXXXXXXXXXXXXX.................................................",
"..............................................................XXXXXXXXXXXXXXXXX.................................................",
"..............................................................XXXXXXXXXXXXXXXXX.................................................",
"..............................................................XXXXXXXXXXXXXXXXX.................................................",
"..............................................................XXXXXXXXXXXXXXXXX.................................................",
"..............................................................XXXXXXXXXXXXXXXXX.................................................",
"................................................................................................................................",
"................................................................................................................................",
"................................................................................................................................",
"................................................................................................................................",
"................................................................................................................................",
"................................................................................................................................",
"................................................................................................................................",
"................................................................................................................................",
" .............................................................................................................................. ",
" .............................................................................................................................. ",
" .............................................................................................................................. ",
" .............................................................................................................................. ",
"  ............................................................................................................................  ",
"  ............................................................................................................................  ",
"   ..........................................................................................................................   ",
"   ..........................................................................................................................   ",
"    ........................................................................................................................    ",
"     ......................................................................................................................     ",
"      ....................................................................................................................      ",
"      ....................................................................................................................      ",
"       ..................................................................................................................       ",
"         ..............................................................................................................         ",
"          ............................................................................................................          ",
"           ..........................................................................................................           ",
"             ......................................................................................................             ",
"               ..................................................................................................               ",
"                   ..........................................................................................                   "
};
